<?xml version="1.0" encoding="UTF-8" standalone="no"?>
<!-- Generator: Adobe Illustrator 18.0.0, SVG Export Plug-In . SVG Version: 6.00 Build 0)  -->

<svg
   xmlns:dc="http://purl.org/dc/elements/1.1/"
   xmlns:cc="http://creativecommons.org/ns#"
   xmlns:rdf="http://www.w3.org/1999/02/22-rdf-syntax-ns#"
   xmlns:svg="http://www.w3.org/2000/svg"
   xmlns="http://www.w3.org/2000/svg"
   xmlns:sodipodi="http://sodipodi.sourceforge.net/DTD/sodipodi-0.dtd"
   xmlns:inkscape="http://www.inkscape.org/namespaces/inkscape"
   version="1.1"
   id="Capa_1"
   x="0px"
   y="0px"
   viewBox="0 0 392.619 392.619"
   style="enable-background:new 0 0 392.619 392.619;"
   xml:space="preserve"
   sodipodi:docname="mailLogo.svg"
   inkscape:version="0.92.4 (5da689c313, 2019-01-14)"><metadata
   id="metadata43"><rdf:RDF><cc:Work
       rdf:about=""><dc:format>image/svg+xml</dc:format><dc:type
         rdf:resource="http://purl.org/dc/dcmitype/StillImage" /><dc:title /></cc:Work></rdf:RDF></metadata><defs
   id="defs41" /><sodipodi:namedview
   pagecolor="#ffffff"
   bordercolor="#666666"
   borderopacity="1"
   objecttolerance="10"
   gridtolerance="10"
   guidetolerance="10"
   inkscape:pageopacity="0"
   inkscape:pageshadow="2"
   inkscape:window-width="1027"
   inkscape:window-height="721"
   id="namedview39"
   showgrid="false"
   inkscape:zoom="0.98"
   inkscape:cx="24.121067"
   inkscape:cy="227.14398"
   inkscape:window-x="128"
   inkscape:window-y="128"
   inkscape:window-maximized="0"
   inkscape:current-layer="g6" />
<g
   inkscape:groupmode="layer"
   id="layer2"
   inkscape:label="Layer 2"
   style="display:inline"><g
     transform="translate(247.44896,-88.265311)"
     id="g6"
     style="display:inline;fill:#f0f0f0;fill-opacity:1"><path
       style="opacity:1;fill:#484848;fill-opacity:1;stroke:none;stroke-width:15.31740856;stroke-miterlimit:4;stroke-dasharray:none;stroke-dashoffset:0;stroke-opacity:1"
       d="M 197.95898,-0.74804688 C 88.911153,-0.74817016 0.51022813,87.195425 0.50976562,195.67969 0.50914384,304.16472 88.910387,392.1095 197.95898,392.10938 307.00758,392.10951 391.32719,303.14431 391.32657,194.65928 391.3261,86.175014 307.00681,-0.74817325 197.95898,-0.74804688 Z M 97.056641,101.82031 H 298.86328 c 8.284,0 15,6.716 15,15 v 16.11719 0.0371 141.56445 c 0,8.284 -6.716,15 -15,15 H 97.056641 c -8.283995,0 -15,-6.716 -15,-15 V 116.82031 c 0,-8.284 6.716005,-15 15,-15 z m 29.867189,30 71.11523,40.90821 72.67383,-40.90821 z m -14.86719,26.05664 V 259.53906 H 283.86133 V 158.84375 l -78.54492,44.21484 c -2.284,1.286 -4.82143,1.92774 -7.35743,1.92774 -2.583,0 -5.16451,-0.66605 -7.47851,-1.99805 z"
       transform="translate(-247.44896,88.265311)"
       id="path4534"
       inkscape:connector-curvature="0"
       sodipodi:nodetypes="cccccsssccsssssscccccccccscc" /></g></g><g
   inkscape:groupmode="layer"
   id="layer1"
   inkscape:label="Layer 1"
   style="display:none" />
<g
   id="g8">
</g>
<g
   id="g10">
</g>
<g
   id="g12">
</g>
<g
   id="g14">
</g>
<g
   id="g16">
</g>
<g
   id="g18">
</g>
<g
   id="g20">
</g>
<g
   id="g22">
</g>
<g
   id="g24">
</g>
<g
   id="g26">
</g>
<g
   id="g28">
</g>
<g
   id="g30">
</g>
<g
   id="g32">
</g>
<g
   id="g34">
</g>
<g
   id="g36">
</g>
</svg>